HIERARCHY
ROOT Hips
{
    OFFSET   0.000000   0.000000   0.000000
    CHANNELS 6 Xposition Yposition Zposition Zrotation Xrotation Yrotation
    JOINT Chest
    {
        OFFSET   0.000000   8.007230   0.000000
        CHANNELS 3 Zrotation Xrotation Yrotation
        JOINT Chest2
        {
            OFFSET   0.000000  22.077100   0.000000
            CHANNELS 3 Zrotation Xrotation Yrotation
            JOINT Neck
            {
                OFFSET   0.000000  23.254800  -0.000021
                CHANNELS 3 Zrotation Xrotation Yrotation
                JOINT Head
                {
                    OFFSET   0.000000  14.370000   1.956610
                    CHANNELS 3 Zrotation Xrotation Yrotation
                    End Site
                    {
                        OFFSET   0.000000  19.566000   0.000000
                    }
                }
            }
            JOINT LeftCollar
            {
                OFFSET   3.911900  19.017000  -0.467063
                CHANNELS 3 Zrotation Xrotation Yrotation
                JOINT LeftShoulder
                {
                    OFFSET  10.383700   0.000000   0.000000
                    CHANNELS 3 Zrotation Xrotation Yrotation
                    JOINT LeftElbow
                    {
                        OFFSET  26.662100   0.001529   0.000325
                        CHANNELS 3 Zrotation Xrotation Yrotation
                        JOINT LeftWrist
                        {
                            OFFSET  28.869000  -0.000011  -0.000096
                            CHANNELS 3 Zrotation Xrotation Yrotation
                            JOINT LeftFinger0
                            {
                                OFFSET   2.044650  -2.323460   3.252850
                                CHANNELS 3 Zrotation Xrotation Yrotation
                                JOINT LeftFinger01
                                {
                                    OFFSET   3.088130   0.000000   0.000000
                                    CHANNELS 3 Zrotation Xrotation Yrotation
                                    JOINT LeftFinger02
                                    {
                                        OFFSET   2.639460   0.000000   0.000000
                                        CHANNELS 3 Zrotation Xrotation Yrotation
                                        End Site
                                        {
                                            OFFSET   2.582190   0.000000   0.000000
                                        }
                                    }
                                }
                            }
                            JOINT LeftFinger1
                            {
                                OFFSET   8.364480   0.000000   3.252850
                                CHANNELS 3 Zrotation Xrotation Yrotation
                                JOINT LeftFinger11
                                {
                                    OFFSET   4.646930   0.000000   0.000000
                                    CHANNELS 3 Zrotation Xrotation Yrotation
                                    JOINT LeftFinger12
                                    {
                                        OFFSET   2.323460   0.000000   0.000000
                                        CHANNELS 3 Zrotation Xrotation Yrotation
                                        End Site
                                        {
                                            OFFSET   2.273050   0.000000   0.000000
                                        }
                                    }
                                }
                            }
                            JOINT LeftFinger2
                            {
                                OFFSET   8.364480   0.000016   1.078090
                                CHANNELS 3 Zrotation Xrotation Yrotation
                                JOINT LeftFinger21
                                {
                                    OFFSET   5.111620   0.000000   0.000000
                                    CHANNELS 3 Zrotation Xrotation Yrotation
                                    JOINT LeftFinger22
                                    {
                                        OFFSET   2.788160   0.000017   0.000000
                                        CHANNELS 3 Zrotation Xrotation Yrotation
                                        End Site
                                        {
                                            OFFSET   2.727660   0.000000   0.000000
                                        }
                                    }
                                }
                            }
                            JOINT LeftFinger3
                            {
                                OFFSET   7.899780   0.000015  -1.078090
                                CHANNELS 3 Zrotation Xrotation Yrotation
                                JOINT LeftFinger31
                                {
                                    OFFSET   4.646920   0.000000   0.000000
                                    CHANNELS 3 Zrotation Xrotation Yrotation
                                    JOINT LeftFinger32
                                    {
                                        OFFSET   2.323470   0.000000   0.000000
                                        CHANNELS 3 Zrotation Xrotation Yrotation
                                        End Site
                                        {
                                            OFFSET   2.273050   0.000000   0.000000
                                        }
                                    }
                                }
                            }
                            JOINT LeftFinger4
                            {
                                OFFSET   7.435090   0.000000  -3.252850
                                CHANNELS 3 Zrotation Xrotation Yrotation
                                JOINT LeftFinger41
                                {
                                    OFFSET   3.717550   0.000000   0.000000
                                    CHANNELS 3 Zrotation Xrotation Yrotation
                                    JOINT LeftFinger42
                                    {
                                        OFFSET   1.858760   0.000000   0.000000
                                        CHANNELS 3 Zrotation Xrotation Yrotation
                                        End Site
                                        {
                                            OFFSET   1.818440   0.000000   0.000000
                                        }
                                    }
                                }
                            }
                        }
                    }
                }
            }
            JOINT RightCollar
            {
                OFFSET  -3.911900  19.017000  -0.467062
                CHANNELS 3 Zrotation Xrotation Yrotation
                JOINT RightShoulder
                {
                    OFFSET -10.383700   0.000015   0.000000
                    CHANNELS 3 Zrotation Xrotation Yrotation
                    JOINT RightElbow
                    {
                        OFFSET -26.662100   0.001341   0.000385
                        CHANNELS 3 Zrotation Xrotation Yrotation
                        JOINT RightWrist
                        {
                            OFFSET -28.869000   0.000025  -0.000080
                            CHANNELS 3 Zrotation Xrotation Yrotation
                            JOINT RightFinger0
                            {
                                OFFSET  -2.044650  -2.323490   3.252850
                                CHANNELS 3 Zrotation Xrotation Yrotation
                                JOINT RightFinger01
                                {
                                    OFFSET  -3.088130   0.000000   0.000000
                                    CHANNELS 3 Zrotation Xrotation Yrotation
                                    JOINT RightFinger02
                                    {
                                        OFFSET  -2.639460   0.000000   0.000000
                                        CHANNELS 3 Zrotation Xrotation Yrotation
                                        End Site
                                        {
                                            OFFSET  -2.582190   0.000000   0.000000
                                        }
                                    }
                                }
                            }
                            JOINT RightFinger1
                            {
                                OFFSET  -8.364480   0.000000   3.252850
                                CHANNELS 3 Zrotation Xrotation Yrotation
                                JOINT RightFinger11
                                {
                                    OFFSET  -4.646930   0.000000   0.000000
                                    CHANNELS 3 Zrotation Xrotation Yrotation
                                    JOINT RightFinger12
                                    {
                                        OFFSET  -2.323470   0.000000   0.000000
                                        CHANNELS 3 Zrotation Xrotation Yrotation
                                        End Site
                                        {
                                            OFFSET  -2.273050   0.000000   0.000000
                                        }
                                    }
                                }
                            }
                            JOINT RightFinger2
                            {
                                OFFSET  -8.364480   0.000000   1.078090
                                CHANNELS 3 Zrotation Xrotation Yrotation
                                JOINT RightFinger21
                                {
                                    OFFSET  -5.111610   0.000000   0.000000
                                    CHANNELS 3 Zrotation Xrotation Yrotation
                                    JOINT RightFinger22
                                    {
                                        OFFSET  -2.788160   0.000000   0.000000
                                        CHANNELS 3 Zrotation Xrotation Yrotation
                                        End Site
                                        {
                                            OFFSET  -2.727660   0.000000   0.000000
                                        }
                                    }
                                }
                            }
                            JOINT RightFinger3
                            {
                                OFFSET  -7.899780   0.000000  -1.078090
                                CHANNELS 3 Zrotation Xrotation Yrotation
                                JOINT RightFinger31
                                {
                                    OFFSET  -4.646920   0.000000   0.000000
                                    CHANNELS 3 Zrotation Xrotation Yrotation
                                    JOINT RightFinger32
                                    {
                                        OFFSET  -2.323470   0.000000   0.000000
                                        CHANNELS 3 Zrotation Xrotation Yrotation
                                        End Site
                                        {
                                            OFFSET  -2.273050   0.000000   0.000000
                                        }
                                    }
                                }
                            }
                            JOINT RightFinger4
                            {
                                OFFSET  -7.435090   0.000000  -3.252850
                                CHANNELS 3 Zrotation Xrotation Yrotation
                                JOINT RightFinger41
                                {
                                    OFFSET  -3.717550   0.000000   0.000000
                                    CHANNELS 3 Zrotation Xrotation Yrotation
                                    JOINT RightFinger42
                                    {
                                        OFFSET  -1.858770   0.000000   0.000000
                                        CHANNELS 3 Zrotation Xrotation Yrotation
                                        End Site
                                        {
                                            OFFSET  -1.818440   0.000000   0.000000
                                        }
                                    }
                                }
                            }
                        }
                    }
                }
            }
        }
    }
    JOINT LeftHip
    {
        OFFSET   9.783010   0.000000   0.000000
        CHANNELS 3 Zrotation Xrotation Yrotation
        JOINT LeftKnee
        {
            OFFSET   0.000070 -41.789100   0.000028
            CHANNELS 3 Zrotation Xrotation Yrotation
            JOINT LeftAnkle
            {
                OFFSET   0.000087 -41.133200  -0.000100
                CHANNELS 3 Zrotation Xrotation Yrotation
                JOINT LeftToe
                {
                    OFFSET   0.000000  -6.358960  14.674500
                    CHANNELS 3 Zrotation Xrotation Yrotation
                    End Site
                    {
                        OFFSET   0.000000   0.000000   3.913200
                    }
                }
            }
        }
    }
    JOINT RightHip
    {
        OFFSET  -9.783020   0.000000   0.000000
        CHANNELS 3 Zrotation Xrotation Yrotation
        JOINT RightKnee
        {
            OFFSET   0.000044 -41.789100  -0.000870
            CHANNELS 3 Zrotation Xrotation Yrotation
            JOINT RightAnkle
            {
                OFFSET  -0.000090 -41.133200  -0.000245
                CHANNELS 3 Zrotation Xrotation Yrotation
                JOINT RightToe
                {
                    OFFSET   0.000000  -6.358960  14.674500
                    CHANNELS 3 Zrotation Xrotation Yrotation
                    End Site
                    {
                        OFFSET   0.000000   0.000000   3.913200
                    }
                }
            }
        }
    }
}
MOTION
Frames: 4
Frame Time:   0.016667
  0.314528  90.104400  -1.330900  -1.270870  -2.274990  -2.666270  -0.437345   1.464730  -1.004360  -0.849349   2.936850  -1.998500   1.937020   2.278740  -0.082312   3.198780   4.605020   5.659690  -2.781560  -1.239280   2.653950 -72.191100  21.894200   6.714300  -3.337190  -4.906110 -14.897100  12.619500  -7.191750   8.040830  34.262100  15.468900 -60.061700 -20.964000   0.003202   0.001315  -5.484010   0.016218   0.011500 -27.556000   8.024740 -14.977700 -23.410300   0.004279   0.006214 -16.384700   0.006634   0.004457 -28.470300   3.134560  -5.757460 -37.837000   0.001064  -0.004063 -25.199400   0.005882  -0.001300 -25.456000   2.826620  -5.914330 -25.602100  -0.002338  -0.005103 -17.041900   0.010330  -0.006858 -29.559100   1.325000  -2.324430 -44.379100   0.003082  -0.008508 -29.556500   0.002037   0.000714   9.800660   1.653740   6.077380  70.235800   9.441540  -5.839200   2.666470  -6.649830   8.375640 -13.357900 -23.278600   2.486710 -35.685800  30.508800  67.334800  32.453100   0.001768  -0.002650  11.226600   0.006608  -0.003451  24.365500  -0.256164  -0.543220  19.936500  -0.005973   0.004763  13.955500   0.008084   0.004322  27.224900  -0.283936  -0.530293  27.920900  -0.001599   0.002727  18.595300   0.001870   0.009311  25.782200  -2.079790  -4.296670  25.860200  -0.002983   0.006761  17.222900  -0.006025   0.005266  32.175500  -2.545740  -4.038390  48.397900  -0.002342   0.007480  32.233000   0.002859   0.005334   0.977883   2.586470   0.556736   0.498586   1.307330  11.500600  -5.389690  -3.441640   3.603330   0.000000   0.000000  -0.000000   2.714190   1.686890  -6.419990  -1.406620   2.777140  -2.874640 -10.277600   0.719475   4.140800  -0.000000   0.000000   0.000000
  0.289421  90.104600  -1.345770  -1.271530  -2.298830  -2.649410  -0.437087   1.484410  -1.002660  -0.848346   2.976210  -1.994990   1.940780   2.270610  -0.082335   3.203930   4.588460   5.684450  -2.780630  -1.248600   2.666730 -72.182100  21.913200   6.685030  -3.338830  -4.914310 -14.911300  12.606700  -7.190910   8.051390  34.262700  15.486900 -60.078200 -20.962700   0.003211   0.001298  -5.482520   0.016221   0.011524 -27.554900   8.011470 -14.956400 -23.406800   0.004283   0.006220 -16.383400   0.006627   0.004460 -28.473000   3.120740  -5.732140 -37.827000   0.001062  -0.004005 -25.192800   0.005842  -0.001272 -25.451700   2.813540  -5.888610 -25.596500  -0.002342  -0.005056 -17.041900   0.010328  -0.006821 -29.547800   1.325060  -2.328820 -44.362200   0.003093  -0.008473 -29.545200   0.002043   0.000719   9.802720   1.635430   6.078540  70.239000   9.474740  -5.841400   2.668810  -6.664900   8.376740 -13.347200 -23.274000   2.514040 -35.672200  30.503300  67.339900  32.464100   0.001768  -0.002646  11.232100   0.006593  -0.003452  24.367400  -0.256163  -0.554246  19.938100  -0.005972   0.004757  13.956600   0.008086   0.004319  27.224800  -0.283937  -0.541078  27.925800  -0.001587   0.002713  18.598600   0.001862   0.009305  25.795100  -2.077320  -4.287540  25.872900  -0.002978   0.006739  17.231300  -0.006036   0.005246  32.182800  -2.541890  -4.029810  48.408400  -0.002337   0.007471  32.240000   0.002861   0.005308   0.978053   2.593930   0.543499   0.503332   1.314450  11.504300  -5.396130  -3.429440   3.603300  -0.000000   0.000000   0.000000   2.768950   1.706500  -6.427110  -1.463890   2.778080  -2.913010 -10.269700   0.709012   4.175830   0.000000   0.000000  -0.000000
  0.247359  90.104700  -1.371190  -1.272570  -2.340910  -2.621700  -0.436884   1.520040  -0.998220  -0.847649   3.047440  -1.985880   1.948350   2.258970  -0.082359   3.215050   4.564730   5.721180  -2.778760  -1.272460   2.686460 -72.166800  21.955000   6.632700  -3.341260  -4.933920 -14.925700  12.582800  -7.186120   8.061870  34.262600  15.519400 -60.109600 -20.953700   0.003223   0.001280  -5.476870   0.016234   0.011573 -27.548500   7.998190 -14.935200 -23.398800   0.004292   0.006233 -16.379200   0.006614   0.004468 -28.475700   3.106910  -5.706820 -37.809700   0.001058  -0.003879 -25.181300   0.005752  -0.001215 -25.445100   2.800460  -5.862900 -25.588500  -0.002348  -0.004956 -17.041900   0.010321  -0.006740 -29.530800   1.325170  -2.335300 -44.336800   0.003121  -0.008393 -29.528300   0.002058   0.000729   9.807490   1.592100   6.081970  70.246800   9.537720  -5.853020   2.672090  -6.682290   8.382970 -13.328400 -23.260400   2.563030 -35.652700  30.497800  67.344900  32.480600   0.001765  -0.002638  11.240300   0.006564  -0.003461  24.376100  -0.256161  -0.565271  19.945200  -0.005965   0.004741  13.961600   0.008088   0.004310  27.224800  -0.283938  -0.551864  27.943000  -0.001555   0.002687  18.610000   0.001839   0.009289  25.824500  -2.074860  -4.278410  25.902000  -0.002964   0.006686  17.250700  -0.006065   0.005195  32.207000  -2.538050  -4.021230  48.444300  -0.002325   0.007451  32.263900   0.002864   0.005244   0.978321   2.606330   0.520284   0.511616   1.327290  11.510400  -5.407030  -3.408640   3.603250   0.000000   0.000000   0.000000   2.861470   1.738300  -6.434270  -1.559600   2.785140  -2.986020 -10.257800   0.690402   4.214450   0.000000   0.000000   0.000000
  0.212929  90.104900  -1.392480  -1.271910  -2.378920  -2.600360  -0.438435   1.554110  -0.992014  -0.850542   3.115550  -1.973190   1.957750   2.253690  -0.082329   3.230270   4.553990   5.742910  -2.776560  -1.309550   2.700190 -72.149900  22.010700   6.584990  -3.342800  -4.962660 -14.925600  12.556100  -7.171550   8.061530  34.257900  15.550300 -60.148500 -20.930300   0.003224   0.001278  -5.464980   0.016266   0.011629 -27.531400   8.007810 -14.961000 -23.387300   0.004306   0.006254 -16.371300   0.006600   0.004482 -28.473800   3.115890  -5.723640 -37.790400   0.001052  -0.003695 -25.168400   0.005619  -0.001141 -25.440600   2.808310  -5.880270 -25.584700  -0.002351  -0.004814 -17.040700   0.010308  -0.006626 -29.519600   1.325270  -2.339310 -44.319900   0.003162  -0.008278 -29.517100   0.002082   0.000740   9.814030   1.531250   6.090000  70.260800   9.603330  -5.879710   2.669210  -6.684780   8.402030 -13.315500 -23.239100   2.611530 -35.649000  30.498300  67.344900  32.491300   0.001746  -0.002628  11.245700   0.006532  -0.003487  24.389300  -0.252044  -0.555775  19.956000  -0.005953   0.004714  13.969200   0.008085   0.004289  27.229800  -0.279275  -0.542659  27.970900  -0.001505   0.002659  18.628600   0.001801   0.009263  25.862200  -2.081170  -4.282900  25.940000  -0.002942   0.006609  17.276000  -0.006111   0.005118  32.249100  -2.545350  -4.024650  48.507900  -0.002303   0.007426  32.306300   0.002862   0.005147   0.978892   2.618470   0.497928   0.518855   1.337270  11.516500  -5.416360  -3.390510   3.603170   0.000000   0.000000   0.000000   2.939660   1.763140  -6.395280  -1.638070   2.803230  -3.068870 -10.251400   0.671822   4.218610  -0.000000   0.000000   0.000000
